<?xml version="1.0" standalone="no"?>
<!DOCTYPE svg PUBLIC "-//W3C//DTD SVG 20010904//EN"
 "http://www.w3.org/TR/2001/REC-SVG-20010904/DTD/svg10.dtd">
<svg version="1.0" xmlns="http://www.w3.org/2000/svg"
 width="1152.000000pt" height="1152.000000pt" viewBox="0 0 1152.000000 1152.000000"
 preserveAspectRatio="xMidYMid meet">
<metadata>
Created by potrace 1.14, written by Peter Selinger 2001-2017
</metadata>
<g transform="translate(0.000000,1152.000000) scale(0.100000,-0.100000)"
fill="#000000" stroke="none">
<path d="M3340 10145 c-25 -7 -58 -17 -73 -24 -39 -16 -135 -113 -153 -156
-19 -46 -43 -162 -35 -170 3 -4 6 -14 7 -23 1 -55 18 -95 93 -220 17 -29 31
-57 31 -62 0 -6 5 -10 10 -10 6 0 10 -4 10 -9 0 -4 21 -45 48 -90 26 -45 54
-93 62 -109 22 -40 179 -311 204 -352 12 -19 28 -48 36 -65 8 -16 18 -32 21
-35 3 -3 20 -30 36 -60 17 -30 73 -127 124 -215 50 -88 106 -185 122 -215 17
-30 34 -56 39 -58 4 -2 8 -7 8 -12 0 -13 82 -155 91 -158 5 -2 9 -9 9 -17 0
-7 24 -53 54 -102 29 -49 64 -109 78 -133 43 -76 100 -174 116 -200 9 -14 17
-27 17 -30 0 -3 17 -33 38 -66 20 -34 37 -67 37 -73 0 -6 5 -11 10 -11 6 0 10
-4 10 -10 0 -5 17 -38 38 -72 21 -35 41 -70 45 -78 4 -8 18 -33 32 -55 13 -22
33 -56 43 -75 10 -19 34 -60 52 -90 35 -58 57 -97 98 -170 14 -25 36 -62 49
-82 12 -21 23 -42 23 -48 0 -5 3 -10 8 -10 4 0 12 -10 18 -23 22 -45 77 -143
95 -169 11 -14 19 -29 19 -33 0 -3 16 -31 35 -61 19 -30 35 -61 35 -69 0 -8 5
-15 10 -15 6 0 13 -8 17 -17 5 -15 149 -269 183 -323 44 -72 110 -238 125
-320 25 -127 29 -187 22 -305 -9 -128 -56 -313 -95 -373 -9 -15 -16 -27 -14
-29 4 -5 -28 -65 -43 -83 -8 -8 -13 -17 -12 -20 1 -3 -25 -49 -56 -102 -31
-54 -82 -140 -112 -192 -30 -52 -55 -99 -55 -104 0 -6 -4 -12 -8 -14 -5 -1
-22 -28 -39 -58 -17 -30 -60 -106 -97 -169 -36 -62 -66 -118 -66 -122 0 -5 -4
-9 -10 -9 -5 0 -12 -11 -16 -25 -3 -14 -10 -25 -14 -25 -4 0 -11 -11 -14 -24
-3 -14 -12 -31 -19 -38 -6 -8 -19 -27 -28 -43 -21 -41 -207 -367 -220 -385 -5
-8 -12 -23 -15 -32 -4 -10 -11 -18 -16 -18 -5 0 -6 -4 -3 -10 3 -5 1 -10 -4
-10 -6 0 -11 -7 -11 -15 0 -8 -4 -15 -10 -15 -5 0 -10 -6 -10 -14 0 -8 -7 -22
-16 -30 -8 -9 -13 -16 -10 -16 5 0 -57 -108 -74 -127 -6 -7 -8 -13 -5 -13 3 0
-8 -20 -25 -45 -17 -25 -27 -45 -23 -45 4 0 3 -4 -3 -8 -6 -4 -21 -27 -35 -52
-13 -25 -27 -47 -30 -50 -3 -3 -8 -12 -12 -20 -3 -8 -22 -42 -42 -75 -19 -33
-55 -96 -80 -140 -26 -44 -55 -95 -66 -114 -78 -132 -169 -294 -169 -302 0 -5
-4 -9 -10 -9 -5 0 -10 -4 -10 -10 0 -5 -18 -39 -40 -75 -22 -36 -40 -70 -40
-75 0 -6 -5 -10 -11 -10 -5 0 -7 -4 -4 -10 3 -5 2 -10 -3 -10 -5 0 -12 -8 -15
-18 -4 -9 -18 -37 -33 -62 -87 -148 -124 -212 -124 -215 0 -2 -18 -32 -39 -67
-70 -115 -85 -202 -55 -307 33 -114 118 -201 229 -234 72 -21 1911 -21 2019 0
39 8 82 16 96 19 50 10 232 86 250 104 3 3 32 23 64 44 72 47 202 174 242 236
16 25 31 47 34 50 11 9 140 240 140 249 0 5 4 11 8 13 4 2 22 28 39 58 17 30
64 111 104 180 40 69 89 153 108 188 47 84 62 109 171 297 52 88 101 174 109
190 9 17 19 32 24 33 4 2 7 7 7 11 0 5 23 48 52 97 28 49 57 100 65 114 8 14
25 43 38 65 14 22 37 64 52 92 15 29 31 53 35 53 4 0 8 5 8 11 0 6 27 56 59
111 33 54 63 108 66 119 4 10 11 19 17 19 6 0 8 3 5 7 -4 3 -1 13 6 22 8 9 52
84 99 166 47 83 95 166 106 185 20 34 69 118 130 225 16 28 59 101 96 164 36
62 66 116 66 118 0 3 8 17 19 31 10 15 35 59 56 97 21 39 46 81 55 95 31 45
132 240 124 240 -4 0 1 9 11 20 10 11 15 20 12 20 -4 0 -2 12 4 28 6 15 12 34
14 42 2 8 8 35 15 60 33 120 27 364 -12 505 -7 22 -12 42 -12 45 -1 3 -4 10
-7 15 -4 6 -12 28 -19 50 -14 44 -69 157 -80 165 -3 3 -13 20 -21 38 -8 17
-17 32 -21 32 -5 0 -8 4 -8 9 0 13 -162 295 -172 299 -4 2 -8 8 -8 14 0 9
-165 299 -216 380 -13 21 -24 40 -24 42 0 3 -22 42 -50 88 -27 46 -50 89 -50
96 0 6 -4 12 -9 12 -5 0 -13 10 -17 22 -3 12 -13 28 -20 36 -8 7 -14 20 -14
28 0 8 -4 14 -10 14 -5 0 -10 6 -10 14 0 8 -6 21 -13 28 -6 7 -21 31 -32 53
-11 22 -32 59 -47 82 -16 23 -28 46 -28 52 0 6 -5 11 -12 11 -6 0 -8 3 -5 7 4
3 -4 20 -16 37 -13 17 -26 38 -30 48 -3 9 -24 46 -46 82 -22 36 -42 75 -46 86
-3 11 -11 20 -16 20 -5 0 -9 5 -9 10 0 6 -16 35 -35 65 -19 30 -32 55 -28 55
3 0 -1 8 -9 18 -8 9 -46 71 -83 137 -37 66 -75 128 -84 139 -9 10 -14 19 -11
20 2 0 -21 44 -52 96 -30 52 -65 112 -77 133 -46 80 -65 113 -83 142 -10 17
-24 42 -30 58 -7 15 -16 27 -20 27 -4 0 -8 5 -8 11 0 6 -36 71 -80 146 -44 74
-80 139 -80 144 0 5 -4 9 -10 9 -5 0 -10 5 -10 10 0 6 -58 110 -129 233 -123
213 -145 251 -192 335 -12 20 -25 42 -29 47 -4 6 -19 31 -34 57 -69 126 -80
143 -88 146 -4 2 -8 10 -8 18 0 8 -4 14 -8 14 -4 0 -15 12 -24 28 -25 41 -196
212 -213 212 -2 0 -21 12 -42 26 -21 14 -74 43 -118 64 -85 40 -143 59 -270
87 -11 3 -445 6 -965 8 -722 2 -956 0 -990 -10z"/>
<path d="M6930 10144 c-167 -43 -306 -191 -328 -349 -8 -53 -7 -142 2 -183 8
-39 46 -126 58 -130 4 -2 8 -9 8 -16 0 -8 9 -25 21 -40 11 -14 17 -26 12 -26
-4 0 -3 -4 3 -8 6 -4 28 -38 49 -77 21 -38 41 -74 45 -80 5 -5 17 -26 28 -45
11 -19 43 -75 71 -123 28 -49 51 -93 51 -98 0 -5 5 -9 10 -9 6 0 10 -4 10 -10
0 -10 90 -167 121 -212 10 -15 19 -34 19 -42 0 -8 4 -16 8 -18 5 -1 15 -15 23
-30 15 -29 157 -275 264 -458 38 -63 77 -133 88 -155 11 -22 22 -42 26 -45 9
-7 51 -82 58 -102 3 -10 9 -18 14 -18 5 0 9 -6 9 -14 0 -8 6 -21 13 -28 12
-13 51 -81 72 -125 5 -13 13 -23 18 -23 4 0 7 -5 7 -11 0 -12 76 -145 97 -170
7 -9 10 -19 6 -22 -3 -4 -2 -7 4 -7 6 0 13 -8 16 -17 3 -10 20 -40 36 -68 33
-55 70 -118 104 -180 12 -22 24 -42 28 -45 3 -3 13 -21 23 -40 9 -19 33 -60
51 -90 19 -30 37 -61 41 -69 4 -7 55 -97 115 -199 74 -128 123 -202 160 -239
29 -29 58 -53 65 -53 7 0 14 -3 16 -7 6 -15 113 -53 161 -57 26 -3 52 -8 57
-11 6 -3 10 -3 10 2 0 4 17 8 38 9 20 0 48 2 62 5 46 7 166 75 201 113 19 21
42 45 52 54 9 9 17 20 17 25 0 5 13 28 30 51 16 24 27 46 24 48 -2 3 2 11 11
18 8 7 15 16 15 21 0 5 16 33 35 63 19 30 35 60 35 66 0 5 4 10 8 10 4 0 13
12 19 28 7 15 20 41 30 57 56 93 71 121 72 128 0 4 7 15 16 23 8 9 15 22 15
30 0 8 5 14 10 14 6 0 10 4 10 8 0 7 24 51 113 205 11 18 29 50 40 72 12 22
25 42 28 45 3 3 32 52 64 110 33 58 63 107 67 108 4 2 8 8 8 13 0 6 23 48 50
95 28 47 50 89 50 94 0 6 4 10 8 10 4 0 13 12 20 28 7 15 21 41 30 57 68 116
119 203 129 220 7 11 17 29 22 40 6 11 27 47 46 80 20 33 39 68 42 78 3 9 9
17 14 17 5 0 9 4 9 9 0 5 37 73 83 150 45 78 89 153 97 168 8 15 39 67 68 116
28 49 52 91 52 93 0 3 48 86 90 154 11 19 130 228 145 255 6 11 23 38 36 60
61 97 81 159 83 260 3 77 -8 125 -44 203 -49 105 -179 216 -270 229 -13 3 -29
8 -35 12 -17 14 -3462 9 -3515 -5z"/>
<path d="M11208 10150 c-138 -42 -210 -200 -150 -331 21 -48 76 -109 98 -109
8 0 14 -4 14 -10 0 -5 11 -10 24 -10 14 0 27 -4 30 -9 5 -8 79 -6 116 2 60 15
124 67 155 127 25 47 28 141 8 193 -21 54 -90 123 -139 140 -46 16 -118 19
-156 7z m147 -60 c55 -26 68 -38 93 -91 47 -96 10 -204 -85 -253 -90 -46 -211
-6 -259 87 -8 15 -12 27 -8 27 4 0 2 6 -3 13 -16 20 -6 94 18 137 50 88 153
122 244 80z"/>
<path d="M11204 10028 c-4 -6 -7 -60 -8 -119 -1 -95 1 -109 16 -113 10 -2 21
1 25 7 10 17 10 57 0 57 -5 0 -4 7 3 15 11 13 19 8 60 -37 35 -38 52 -50 65
-45 15 6 13 13 -20 52 -25 31 -32 45 -21 45 8 0 20 9 26 21 16 29 21 79 9 79
-6 0 -8 4 -4 9 3 5 -5 17 -17 25 -26 19 -123 22 -134 4z m108 -33 c12 -16 9
-62 -5 -68 -6 -2 -23 -4 -37 -3 -19 1 -25 6 -24 24 1 12 -3 22 -8 22 -5 0 -4
9 2 19 11 21 59 25 72 6z"/>
<path d="M1135 6092 c-53 -5 -83 -23 -94 -54 -7 -20 -11 -305 -11 -860 0 -764
2 -833 17 -859 11 -19 28 -31 48 -34 49 -8 135 -12 135 -5 0 3 17 4 38 2 28
-2 44 3 67 22 l30 24 2 286 c3 497 3 503 30 557 32 63 81 83 202 82 70 0 93
-5 124 -23 68 -41 69 -47 72 -485 2 -407 5 -433 46 -456 35 -18 199 -15 243 6
20 9 36 20 37 24 0 3 2 15 5 26 5 26 5 914 0 940 -13 61 -21 84 -41 120 -34
60 -76 99 -139 130 -68 33 -106 40 -216 40 -121 -1 -205 -18 -315 -65 l-45
-19 -1 262 c-1 144 -1 265 0 269 2 18 -59 68 -86 69 -99 4 -121 4 -148 1z"/>
<path d="M184 5858 c-37 -17 -45 -47 -47 -185 l-1 -133 -41 2 c-24 0 -52 -6
-68 -16 -26 -18 -26 -19 -24 -126 1 -70 6 -113 14 -121 7 -7 37 -13 66 -13
l54 -1 1 -350 c0 -192 3 -370 7 -395 4 -25 8 -54 10 -65 9 -62 49 -128 96
-158 54 -36 112 -47 244 -46 220 0 295 17 313 68 12 35 10 192 -3 211 -22 34
-55 38 -145 15 -47 -12 -101 -21 -120 -21 -62 2 -64 15 -65 399 -1 236 1 337
9 338 6 1 72 3 146 4 74 1 143 3 153 4 29 2 43 52 41 147 -1 78 -3 89 -24 106
-13 11 -40 19 -66 19 -24 1 -50 2 -56 3 -7 1 -19 -2 -25 -7 -7 -5 -13 -6 -13
-1 0 5 -37 9 -82 9 l-82 0 -1 134 -2 135 -34 28 c-33 28 -38 29 -134 27 -55
-1 -110 -6 -121 -11z"/>
<path d="M2778 5574 c-2 -1 -22 -5 -45 -8 -134 -16 -262 -97 -314 -198 -18
-35 -60 -147 -59 -155 0 -2 0 -4 -1 -5 -1 -7 -10 -80 -17 -143 -10 -101 -4
-341 11 -425 45 -243 176 -361 432 -387 111 -11 320 -6 445 13 119 17 169 42
171 87 5 70 -1 133 -12 156 -18 34 -35 52 -43 44 -3 -4 -6 -2 -6 4 0 7 -12 8
-37 3 -21 -5 -49 -11 -63 -14 -14 -2 -47 -9 -73 -15 -135 -31 -301 -35 -379
-8 -65 21 -89 48 -108 117 -13 46 -16 147 -6 158 11 10 196 8 196 -3 0 -7 3
-7 8 0 9 12 152 14 152 2 0 -4 5 -5 12 -1 17 11 148 11 148 1 0 -4 6 -5 13 0
6 4 42 8 80 9 37 1 76 2 87 3 34 2 49 49 50 162 1 57 1 106 0 109 -1 3 -3 19
-5 35 -9 86 -14 113 -24 150 -6 22 -11 45 -12 50 -1 6 -10 22 -20 36 -10 14
-16 29 -13 31 3 3 -17 30 -45 60 -47 51 -127 101 -182 112 -13 3 -46 9 -74 15
-45 9 -259 13 -267 5z m241 -278 c56 -26 72 -62 78 -170 l5 -91 -211 0 c-171
0 -214 3 -220 14 -5 8 -8 19 -6 25 2 6 6 36 9 67 9 91 28 123 91 154 57 27
194 27 254 1z"/>
<path d="M7763 3711 c-33 -36 -40 -47 -46 -73 -8 -29 -6 -33 127 -188 50 -58
97 -113 106 -123 8 -10 23 -28 33 -40 11 -12 33 -40 50 -61 18 -21 42 -48 55
-59 12 -11 22 -25 22 -29 0 -11 50 -58 61 -58 11 0 55 60 51 71 -1 5 3 9 8 9
16 0 -14 49 -59 100 -40 44 -49 65 -33 72 10 4 102 163 102 176 0 6 17 6 43 1
23 -5 63 -12 88 -15 46 -6 48 -5 73 32 34 50 32 84 -4 89 -3 1 -25 5 -50 9
-25 5 -54 10 -65 12 -61 10 -214 36 -235 40 -14 2 -40 7 -59 10 -18 3 -43 8
-55 10 -11 3 -39 7 -61 10 -22 3 -51 7 -65 10 -62 14 -70 14 -87 -5z m245
-150 c18 -5 35 -10 37 -10 18 1 85 -14 85 -18 0 -14 -72 -134 -79 -131 -4 2
-39 39 -77 83 -37 44 -73 84 -79 88 -12 10 66 1 113 -12z"/>
<path d="M7546 3341 c-14 -15 -26 -32 -26 -39 0 -7 -4 -12 -9 -12 -4 0 -28
-39 -52 -87 -65 -131 -60 -207 19 -288 35 -36 70 -65 78 -65 2 0 14 -9 26 -20
12 -11 28 -20 35 -20 7 0 13 -5 13 -11 0 -5 4 -8 9 -4 5 3 12 1 16 -5 6 -9 72
-41 78 -38 1 1 13 -4 25 -11 55 -29 142 -32 193 -6 39 21 104 88 122 127 6 15
15 28 19 28 5 0 8 7 8 15 0 8 5 15 11 15 5 0 8 4 5 8 -3 5 4 23 15 40 10 18
19 41 19 51 0 24 -69 67 -88 55 -7 -5 -30 -40 -50 -79 -20 -38 -53 -86 -73
-106 -32 -32 -43 -36 -76 -33 -59 5 -253 112 -294 162 -10 11 -20 29 -23 40
-7 22 26 118 53 154 9 13 27 40 40 60 l22 37 -26 23 c-44 38 -60 40 -89 9z"/>
<path d="M7252 2828 c-13 -17 -45 -80 -48 -94 -2 -10 71 -107 116 -155 8 -9
31 -36 50 -60 19 -24 52 -63 73 -87 36 -42 46 -59 28 -47 -5 3 -22 7 -38 10
-54 8 -98 16 -123 21 -14 3 -41 8 -60 10 -19 3 -46 7 -60 10 -14 3 -41 7 -60
10 -19 3 -44 7 -54 9 -29 6 -49 -9 -75 -58 -35 -64 -36 -61 122 -169 27 -18
55 -39 62 -45 7 -7 18 -13 23 -13 6 0 12 -4 14 -8 3 -7 33 -29 213 -154 38
-26 76 -48 85 -48 9 0 25 15 35 32 38 63 38 65 -16 108 -28 22 -55 40 -59 40
-5 0 -15 6 -22 13 -23 21 -138 97 -148 97 -6 0 -10 4 -10 9 0 5 -8 12 -17 15
-10 4 -29 15 -43 26 -14 11 -18 18 -10 15 17 -5 63 -14 100 -20 29 -4 76 -13
107 -20 35 -8 106 -17 142 -19 29 -1 39 5 58 33 13 19 23 40 23 47 0 10 -65
97 -105 140 -38 42 -121 139 -128 150 -11 18 -5 16 191 -82 92 -46 176 -84
188 -84 15 0 29 14 47 49 25 45 26 49 9 62 -20 17 -87 55 -87 50 0 -2 -31 11
-70 29 -136 64 -236 110 -321 150 -90 42 -115 48 -132 28z"/>
<path d="M6892 2210 c-9 -11 -22 -35 -28 -52 -10 -30 -6 -39 48 -128 31 -52
67 -112 78 -133 l21 -37 -155 2 c-107 1 -159 -2 -169 -10 -7 -7 -22 -30 -32
-52 -30 -67 -25 -69 230 -73 242 -4 225 0 353 -81 67 -42 86 -43 116 -3 36 47
34 82 -4 99 -16 7 -30 16 -30 19 0 4 -8 9 -17 12 -10 4 -44 21 -76 40 -57 33
-73 51 -128 152 -12 22 -26 43 -31 46 -5 3 -9 9 -8 13 1 4 -14 30 -32 59 -18
29 -39 66 -47 82 -16 31 -48 65 -63 65 -4 0 -16 -9 -26 -20z"/>
</g>
</svg>
